<svg width="9" height="12" viewBox="0 0 9 12" fill="none" xmlns="http://www.w3.org/2000/svg">
<mask id="path-1-outside-1_359_46" maskUnits="userSpaceOnUse" x="0" y="0" width="9" height="12" fill="black">
<rect fill="white" width="9" height="12"/>
<path d="M1.175 0.185C1.435 0.185 1.66 0.25 1.85 0.38C2.04 0.509999 2.135 0.719999 2.135 1.01V4.58H6.62V1.01C6.62 0.719999 6.715 0.509999 6.905 0.38C7.095 0.25 7.32 0.185 7.58 0.185C7.84 0.185 8.065 0.25 8.255 0.38C8.445 0.509999 8.54 0.719999 8.54 1.01V10.205C8.54 10.495 8.445 10.705 8.255 10.835C8.065 10.965 7.84 11.03 7.58 11.03C7.32 11.03 7.095 10.965 6.905 10.835C6.715 10.705 6.62 10.495 6.62 10.205V6.17H2.135V10.205C2.135 10.495 2.04 10.705 1.85 10.835C1.66 10.965 1.435 11.03 1.175 11.03C0.915 11.03 0.69 10.965 0.5 10.835C0.31 10.705 0.215 10.495 0.215 10.205V1.01C0.215 0.719999 0.31 0.509999 0.5 0.38C0.69 0.25 0.915 0.185 1.175 0.185Z"/>
</mask>
<path d="M1.175 0.185C1.435 0.185 1.66 0.25 1.85 0.38C2.04 0.509999 2.135 0.719999 2.135 1.01V4.58H6.62V1.01C6.62 0.719999 6.715 0.509999 6.905 0.38C7.095 0.25 7.32 0.185 7.58 0.185C7.84 0.185 8.065 0.25 8.255 0.38C8.445 0.509999 8.54 0.719999 8.54 1.01V10.205C8.54 10.495 8.445 10.705 8.255 10.835C8.065 10.965 7.84 11.03 7.58 11.03C7.32 11.03 7.095 10.965 6.905 10.835C6.715 10.705 6.62 10.495 6.62 10.205V6.17H2.135V10.205C2.135 10.495 2.04 10.705 1.85 10.835C1.66 10.965 1.435 11.03 1.175 11.03C0.915 11.03 0.69 10.965 0.5 10.835C0.31 10.705 0.215 10.495 0.215 10.205V1.01C0.215 0.719999 0.31 0.509999 0.5 0.38C0.69 0.25 0.915 0.185 1.175 0.185Z" fill="#FF5100"/>
<path d="M1.85 0.38L1.79353 0.462531L1.79353 0.462531L1.85 0.38ZM2.135 4.58H2.035V4.68H2.135V4.58ZM6.62 4.58V4.68H6.72V4.58H6.62ZM6.905 0.38L6.96147 0.462531L6.96147 0.462531L6.905 0.38ZM8.255 0.38L8.19853 0.462531L8.19853 0.462531L8.255 0.38ZM8.255 10.835L8.19853 10.7525L8.19853 10.7525L8.255 10.835ZM6.905 10.835L6.96147 10.7525L6.96147 10.7525L6.905 10.835ZM6.62 6.17H6.72V6.07H6.62V6.17ZM2.135 6.17V6.07H2.035V6.17H2.135ZM1.85 10.835L1.90647 10.9175L1.90647 10.9175L1.85 10.835ZM0.5 10.835L0.556468 10.7525L0.556468 10.7525L0.5 10.835ZM0.5 0.38L0.556468 0.462531L0.556468 0.462531L0.5 0.38ZM1.175 0.285C1.41755 0.285 1.62226 0.345347 1.79353 0.462531L1.90647 0.297469C1.69774 0.154653 1.45245 0.0849998 1.175 0.0849998V0.285ZM1.79353 0.462531C1.94919 0.569036 2.035 0.743364 2.035 1.01H2.235C2.235 0.696635 2.13081 0.450963 1.90647 0.297469L1.79353 0.462531ZM2.035 1.01V4.58H2.235V1.01H2.035ZM2.135 4.68H6.62V4.48H2.135V4.68ZM6.72 4.58V1.01H6.52V4.58H6.72ZM6.72 1.01C6.72 0.743364 6.80581 0.569036 6.96147 0.462531L6.84853 0.297469C6.62419 0.450963 6.52 0.696635 6.52 1.01H6.72ZM6.96147 0.462531C7.13274 0.345347 7.33745 0.285 7.58 0.285V0.0849998C7.30255 0.0849998 7.05726 0.154653 6.84853 0.297469L6.96147 0.462531ZM7.58 0.285C7.82255 0.285 8.02726 0.345347 8.19853 0.462531L8.31147 0.297469C8.10274 0.154653 7.85745 0.0849998 7.58 0.0849998V0.285ZM8.19853 0.462531C8.35419 0.569036 8.44 0.743364 8.44 1.01H8.64C8.64 0.696635 8.53581 0.450963 8.31147 0.297469L8.19853 0.462531ZM8.44 1.01V10.205H8.64V1.01H8.44ZM8.44 10.205C8.44 10.4716 8.35419 10.646 8.19853 10.7525L8.31147 10.9175C8.53581 10.764 8.64 10.5184 8.64 10.205H8.44ZM8.19853 10.7525C8.02726 10.8697 7.82255 10.93 7.58 10.93V11.13C7.85745 11.13 8.10274 11.0603 8.31147 10.9175L8.19853 10.7525ZM7.58 10.93C7.33745 10.93 7.13274 10.8697 6.96147 10.7525L6.84853 10.9175C7.05726 11.0603 7.30255 11.13 7.58 11.13V10.93ZM6.96147 10.7525C6.80581 10.646 6.72 10.4716 6.72 10.205H6.52C6.52 10.5184 6.62419 10.764 6.84853 10.9175L6.96147 10.7525ZM6.72 10.205V6.17H6.52V10.205H6.72ZM6.62 6.07H2.135V6.27H6.62V6.07ZM2.035 6.17V10.205H2.235V6.17H2.035ZM2.035 10.205C2.035 10.4716 1.94919 10.646 1.79353 10.7525L1.90647 10.9175C2.13081 10.764 2.235 10.5184 2.235 10.205H2.035ZM1.79353 10.7525C1.62226 10.8697 1.41755 10.93 1.175 10.93V11.13C1.45245 11.13 1.69774 11.0603 1.90647 10.9175L1.79353 10.7525ZM1.175 10.93C0.932451 10.93 0.727737 10.8697 0.556468 10.7525L0.443532 10.9175C0.652263 11.0603 0.897549 11.13 1.175 11.13V10.93ZM0.556468 10.7525C0.400806 10.646 0.315 10.4716 0.315 10.205H0.115C0.115 10.5184 0.219194 10.764 0.443532 10.9175L0.556468 10.7525ZM0.315 10.205V1.01H0.115V10.205H0.315ZM0.315 1.01C0.315 0.743364 0.400806 0.569036 0.556468 0.462531L0.443532 0.297469C0.219194 0.450963 0.115 0.696635 0.115 1.01H0.315ZM0.556468 0.462531C0.727737 0.345347 0.932451 0.285 1.175 0.285V0.0849998C0.897549 0.0849998 0.652263 0.154653 0.443532 0.297469L0.556468 0.462531Z" fill="#FF5100" mask="url(#path-1-outside-1_359_46)"/>
</svg>
