<?xml version="1.0"?>
<svg width="780" height="768" xmlns="http://www.w3.org/2000/svg" xmlns:svg="http://www.w3.org/2000/svg" xmlns:xlink="http://www.w3.org/1999/xlink">
 <g class="layer">
  <title>Layer 1</title>
  <use id="svg_3" transform="matrix(1 0 0 1 0 0) matrix(16 0 0 16 0 0)" x="0" xlink:href="#svg_2" y="0"/>
  <path d="m31.5,78.92a24.28,24.28 0 0 1 24.28,-24.28l72.83,0a24.28,24.28 0 0 1 23.3,18.45l19.91,78.65l563.67,0a24.28,24.28 0 0 1 23.3,30.1l-72.83,291.3a24.28,24.28 0 0 1 -23.3,18.45l-436.95,0a24.28,24.28 0 0 1 -23.3,-18.45l-92.73,-369.95l-53.89,0a24.28,24.28 0 0 1 -24.28,-24.28m152.45,121.38l24.28,97.1l66.03,0l0,-97.1l-90.3,0zm138.85,0l0,97.1l97.1,0l0,-97.1l-97.1,0zm145.65,0l0,97.1l97.1,0l0,-97.1l-97.1,0zm145.65,0l0,97.1l66.03,0l24.28,-97.1l-90.3,0zm53.89,145.65l-53.89,0l0,97.1l29.62,0l24.28,-97.1zm-102.44,0l-97.1,0l0,97.1l97.1,0l0,-97.1zm-145.65,0l-97.1,0l0,97.1l97.1,0l0,-97.1zm-145.65,0l-53.89,0l24.28,97.1l29.62,0l0,-97.1zm0,242.75a48.55,48.55 0 1 0 0,97.1a48.55,48.55 0 0 0 0,-97.1m-97.1,48.55a97.1,97.1 0 1 1 194.2,0a97.1,97.1 0 0 1 -194.2,0m436.95,-48.55a48.55,48.55 0 1 0 0,97.1a48.55,48.55 0 0 0 0,-97.1m-97.1,48.55a97.1,97.1 0 1 1 194.2,0a97.1,97.1 0 0 1 -194.2,0" fill="#000000" id="svg_4"/>
 </g>
 <defs>
  <symbol height="1024" id="svg_2" viewBox="0 0 16 16" width="1024" xmlns="http://www.w3.org/2000/svg">
   <path d="m0,2.5a0.5,0.5 0 0 1 0.5,-0.5l1.5,0a0.5,0.5 0 0 1 0.48,0.38l0.41,1.62l11.61,0a0.5,0.5 0 0 1 0.48,0.62l-1.5,6a0.5,0.5 0 0 1 -0.48,0.38l-9,0a0.5,0.5 0 0 1 -0.48,-0.38l-1.91,-7.62l-1.11,0a0.5,0.5 0 0 1 -0.5,-0.5m3.14,2.5l0.5,2l1.36,0l0,-2l-1.86,0zm2.86,0l0,2l2,0l0,-2l-2,0zm3,0l0,2l2,0l0,-2l-2,0zm3,0l0,2l1.36,0l0.5,-2l-1.86,0zm1.11,3l-1.11,0l0,2l0.61,0l0.5,-2zm-2.11,0l-2,0l0,2l2,0l0,-2zm-3,0l-2,0l0,2l2,0l0,-2zm-3,0l-1.11,0l0.5,2l0.61,0l0,-2zm0,5a1,1 0 1 0 0,2a1,1 0 0 0 0,-2m-2,1a2,2 0 1 1 4,0a2,2 0 0 1 -4,0m9,-1a1,1 0 1 0 0,2a1,1 0 0 0 0,-2m-2,1a2,2 0 1 1 4,0a2,2 0 0 1 -4,0" fill="#000000"/>
  </symbol>
 </defs>
</svg>