<svg width="90" height="37" viewBox="0 0 90 37" fill="none" xmlns="http://www.w3.org/2000/svg">
<mask id="path-1-outside-1_357_45" maskUnits="userSpaceOnUse" x="47" y="12" width="43" height="23" fill="black">
<rect fill="white" x="47" y="12" width="43" height="23"/>
<path d="M53.504 16.864C53.504 17.232 53.688 17.416 54.056 17.416H64.76C65.128 17.416 65.392 17.544 65.552 17.8C65.728 18.04 65.816 18.328 65.816 18.664C65.816 19.016 65.728 19.32 65.552 19.576C65.392 19.816 65.128 19.936 64.76 19.936H52.448C51.68 19.936 51.144 19.792 50.84 19.504C50.552 19.216 50.408 18.696 50.408 17.944V13.72C50.408 13.272 50.56 12.944 50.864 12.736C51.184 12.528 51.552 12.424 51.968 12.424C52.368 12.424 52.72 12.528 53.024 12.736C53.344 12.944 53.504 13.272 53.504 13.72V16.864ZM48.824 24.184C48.456 24.184 48.184 24.064 48.008 23.824C47.848 23.568 47.768 23.272 47.768 22.936C47.768 22.6 47.848 22.312 48.008 22.072C48.184 21.816 48.456 21.688 48.824 21.688H56.408V18.688H59.432V21.688H67.016C67.384 21.688 67.648 21.816 67.808 22.072C67.984 22.312 68.072 22.6 68.072 22.936C68.072 23.272 67.984 23.568 67.808 23.824C67.648 24.064 67.384 24.184 67.016 24.184H48.824ZM63.416 25.456C64.184 25.456 64.712 25.6 65 25.888C65.304 26.176 65.456 26.696 65.456 27.448V29.2C65.456 29.952 65.304 30.472 65 30.76C64.712 31.048 64.184 31.192 63.416 31.192H53.672C53.432 31.192 53.312 31.312 53.312 31.552V31.984C53.312 32.224 53.432 32.344 53.672 32.344H64.952C65.288 32.344 65.536 32.464 65.696 32.704C65.856 32.944 65.936 33.216 65.936 33.52C65.936 33.84 65.856 34.112 65.696 34.336C65.536 34.576 65.288 34.696 64.952 34.696H52.376C51.608 34.696 51.072 34.552 50.768 34.264C50.48 33.976 50.336 33.456 50.336 32.704V30.928C50.336 30.176 50.48 29.656 50.768 29.368C51.072 29.08 51.608 28.936 52.376 28.936H62.12C62.36 28.936 62.48 28.816 62.48 28.576V28.168C62.48 27.928 62.36 27.808 62.12 27.808H51.272C50.936 27.808 50.688 27.696 50.528 27.472C50.368 27.232 50.288 26.952 50.288 26.632C50.288 26.328 50.368 26.056 50.528 25.816C50.688 25.576 50.936 25.456 51.272 25.456H63.416ZM76.5957 16.48V18.256C76.5957 18.768 76.6197 19.232 76.6677 19.648C76.7317 20.064 76.8277 20.448 76.9557 20.8C77.0997 21.152 77.2837 21.496 77.5077 21.832C77.7317 22.152 78.0117 22.48 78.3477 22.816C78.8117 23.28 79.2597 23.72 79.6918 24.136C80.1238 24.552 80.5238 24.92 80.8918 25.24C81.1958 25.512 81.3158 25.832 81.2517 26.2C81.2037 26.568 81.0597 26.88 80.8197 27.136C80.5798 27.376 80.2838 27.536 79.9317 27.616C79.5797 27.68 79.2597 27.584 78.9718 27.328C78.6517 27.056 78.2997 26.736 77.9158 26.368C77.5317 25.984 77.1237 25.576 76.6917 25.144C76.0677 24.52 75.6517 24.048 75.4437 23.728C75.2357 23.392 75.1077 23.112 75.0597 22.888H75.0357C75.0037 23.032 74.9557 23.176 74.8917 23.32C74.8437 23.448 74.7557 23.608 74.6277 23.8C74.5157 23.976 74.3557 24.184 74.1477 24.424C73.9397 24.648 73.6837 24.912 73.3797 25.216C72.9477 25.648 72.5157 26.072 72.0837 26.488C71.6517 26.904 71.2037 27.312 70.7397 27.712C70.5797 27.84 70.4117 27.92 70.2357 27.952C70.0597 27.984 69.8837 27.984 69.7077 27.952C69.5477 27.904 69.3877 27.84 69.2277 27.76C69.0837 27.664 68.9557 27.552 68.8437 27.424C68.6037 27.152 68.4757 26.832 68.4597 26.464C68.4437 26.096 68.5877 25.776 68.8917 25.504C69.8997 24.624 70.8437 23.728 71.7237 22.816C72.0597 22.48 72.3397 22.152 72.5637 21.832C72.7877 21.496 72.9637 21.152 73.0917 20.8C73.2357 20.448 73.3317 20.064 73.3797 19.648C73.4437 19.232 73.4757 18.768 73.4757 18.256V16.48H69.9237C69.5557 16.48 69.2837 16.352 69.1077 16.096C68.9317 15.84 68.8437 15.536 68.8437 15.184C68.8437 14.816 68.9317 14.504 69.1077 14.248C69.2837 13.992 69.5557 13.864 69.9237 13.864H79.9557C80.3237 13.864 80.5957 13.992 80.7718 14.248C80.9478 14.504 81.0357 14.816 81.0357 15.184C81.0357 15.536 80.9478 15.84 80.7718 16.096C80.5957 16.352 80.3237 16.48 79.9557 16.48H76.5957ZM88.0198 19.288C88.4037 19.288 88.6838 19.416 88.8598 19.672C89.0358 19.928 89.1238 20.24 89.1238 20.608C89.1238 20.976 89.0358 21.296 88.8598 21.568C88.6838 21.824 88.4037 21.952 88.0198 21.952H85.7638V31.888C85.7638 32.336 85.6038 32.664 85.2837 32.872C84.9797 33.08 84.6277 33.184 84.2278 33.184C83.8277 33.184 83.4677 33.08 83.1477 32.872C82.8438 32.664 82.6918 32.336 82.6918 31.888V13.504C82.6918 13.056 82.8438 12.728 83.1477 12.52C83.4677 12.312 83.8277 12.208 84.2278 12.208C84.6277 12.208 84.9797 12.312 85.2837 12.52C85.6038 12.728 85.7638 13.056 85.7638 13.504V19.288H88.0198Z"/>
</mask>
<path d="M53.504 16.864C53.504 17.232 53.688 17.416 54.056 17.416H64.76C65.128 17.416 65.392 17.544 65.552 17.8C65.728 18.04 65.816 18.328 65.816 18.664C65.816 19.016 65.728 19.32 65.552 19.576C65.392 19.816 65.128 19.936 64.76 19.936H52.448C51.68 19.936 51.144 19.792 50.84 19.504C50.552 19.216 50.408 18.696 50.408 17.944V13.72C50.408 13.272 50.56 12.944 50.864 12.736C51.184 12.528 51.552 12.424 51.968 12.424C52.368 12.424 52.72 12.528 53.024 12.736C53.344 12.944 53.504 13.272 53.504 13.72V16.864ZM48.824 24.184C48.456 24.184 48.184 24.064 48.008 23.824C47.848 23.568 47.768 23.272 47.768 22.936C47.768 22.6 47.848 22.312 48.008 22.072C48.184 21.816 48.456 21.688 48.824 21.688H56.408V18.688H59.432V21.688H67.016C67.384 21.688 67.648 21.816 67.808 22.072C67.984 22.312 68.072 22.6 68.072 22.936C68.072 23.272 67.984 23.568 67.808 23.824C67.648 24.064 67.384 24.184 67.016 24.184H48.824ZM63.416 25.456C64.184 25.456 64.712 25.6 65 25.888C65.304 26.176 65.456 26.696 65.456 27.448V29.2C65.456 29.952 65.304 30.472 65 30.76C64.712 31.048 64.184 31.192 63.416 31.192H53.672C53.432 31.192 53.312 31.312 53.312 31.552V31.984C53.312 32.224 53.432 32.344 53.672 32.344H64.952C65.288 32.344 65.536 32.464 65.696 32.704C65.856 32.944 65.936 33.216 65.936 33.52C65.936 33.84 65.856 34.112 65.696 34.336C65.536 34.576 65.288 34.696 64.952 34.696H52.376C51.608 34.696 51.072 34.552 50.768 34.264C50.48 33.976 50.336 33.456 50.336 32.704V30.928C50.336 30.176 50.48 29.656 50.768 29.368C51.072 29.08 51.608 28.936 52.376 28.936H62.12C62.36 28.936 62.48 28.816 62.48 28.576V28.168C62.48 27.928 62.36 27.808 62.12 27.808H51.272C50.936 27.808 50.688 27.696 50.528 27.472C50.368 27.232 50.288 26.952 50.288 26.632C50.288 26.328 50.368 26.056 50.528 25.816C50.688 25.576 50.936 25.456 51.272 25.456H63.416ZM76.5957 16.48V18.256C76.5957 18.768 76.6197 19.232 76.6677 19.648C76.7317 20.064 76.8277 20.448 76.9557 20.8C77.0997 21.152 77.2837 21.496 77.5077 21.832C77.7317 22.152 78.0117 22.48 78.3477 22.816C78.8117 23.28 79.2597 23.72 79.6918 24.136C80.1238 24.552 80.5238 24.92 80.8918 25.24C81.1958 25.512 81.3158 25.832 81.2517 26.2C81.2037 26.568 81.0597 26.88 80.8197 27.136C80.5798 27.376 80.2838 27.536 79.9317 27.616C79.5797 27.68 79.2597 27.584 78.9718 27.328C78.6517 27.056 78.2997 26.736 77.9158 26.368C77.5317 25.984 77.1237 25.576 76.6917 25.144C76.0677 24.52 75.6517 24.048 75.4437 23.728C75.2357 23.392 75.1077 23.112 75.0597 22.888H75.0357C75.0037 23.032 74.9557 23.176 74.8917 23.32C74.8437 23.448 74.7557 23.608 74.6277 23.8C74.5157 23.976 74.3557 24.184 74.1477 24.424C73.9397 24.648 73.6837 24.912 73.3797 25.216C72.9477 25.648 72.5157 26.072 72.0837 26.488C71.6517 26.904 71.2037 27.312 70.7397 27.712C70.5797 27.84 70.4117 27.92 70.2357 27.952C70.0597 27.984 69.8837 27.984 69.7077 27.952C69.5477 27.904 69.3877 27.84 69.2277 27.76C69.0837 27.664 68.9557 27.552 68.8437 27.424C68.6037 27.152 68.4757 26.832 68.4597 26.464C68.4437 26.096 68.5877 25.776 68.8917 25.504C69.8997 24.624 70.8437 23.728 71.7237 22.816C72.0597 22.48 72.3397 22.152 72.5637 21.832C72.7877 21.496 72.9637 21.152 73.0917 20.8C73.2357 20.448 73.3317 20.064 73.3797 19.648C73.4437 19.232 73.4757 18.768 73.4757 18.256V16.48H69.9237C69.5557 16.48 69.2837 16.352 69.1077 16.096C68.9317 15.84 68.8437 15.536 68.8437 15.184C68.8437 14.816 68.9317 14.504 69.1077 14.248C69.2837 13.992 69.5557 13.864 69.9237 13.864H79.9557C80.3237 13.864 80.5957 13.992 80.7718 14.248C80.9478 14.504 81.0357 14.816 81.0357 15.184C81.0357 15.536 80.9478 15.84 80.7718 16.096C80.5957 16.352 80.3237 16.48 79.9557 16.48H76.5957ZM88.0198 19.288C88.4037 19.288 88.6838 19.416 88.8598 19.672C89.0358 19.928 89.1238 20.24 89.1238 20.608C89.1238 20.976 89.0358 21.296 88.8598 21.568C88.6838 21.824 88.4037 21.952 88.0198 21.952H85.7638V31.888C85.7638 32.336 85.6038 32.664 85.2837 32.872C84.9797 33.08 84.6277 33.184 84.2278 33.184C83.8277 33.184 83.4677 33.08 83.1477 32.872C82.8438 32.664 82.6918 32.336 82.6918 31.888V13.504C82.6918 13.056 82.8438 12.728 83.1477 12.52C83.4677 12.312 83.8277 12.208 84.2278 12.208C84.6277 12.208 84.9797 12.312 85.2837 12.52C85.6038 12.728 85.7638 13.056 85.7638 13.504V19.288H88.0198Z" fill="#191554"/>
<path d="M65.552 17.8L65.467 17.8531L65.4714 17.8591L65.552 17.8ZM65.552 19.576L65.4696 19.5193L65.4688 19.5205L65.552 19.576ZM50.84 19.504L50.7693 19.5747L50.7712 19.5766L50.84 19.504ZM50.864 12.736L50.8095 12.6521L50.8075 12.6535L50.864 12.736ZM53.024 12.736L52.9675 12.8186L52.9695 12.8198L53.024 12.736ZM48.008 23.824L47.923 23.8771L47.9274 23.8831L48.008 23.824ZM48.008 22.072L47.9256 22.0153L47.9248 22.0165L48.008 22.072ZM56.408 21.688V21.788H56.508V21.688H56.408ZM56.408 18.688V18.588H56.308V18.688H56.408ZM59.432 18.688H59.532V18.588H59.432V18.688ZM59.432 21.688H59.332V21.788H59.432V21.688ZM67.808 22.072L67.723 22.1251L67.7274 22.1311L67.808 22.072ZM67.808 23.824L67.7256 23.7673L67.7248 23.7685L67.808 23.824ZM65 25.888L64.9293 25.9587L64.9312 25.9606L65 25.888ZM65 30.76L64.9312 30.6874L64.9293 30.6893L65 30.76ZM65.696 34.336L65.6146 34.2778L65.6128 34.2805L65.696 34.336ZM50.768 34.264L50.6973 34.3347L50.6992 34.3366L50.768 34.264ZM50.768 29.368L50.6992 29.2954L50.6973 29.2973L50.768 29.368ZM50.528 27.472L50.4448 27.5275L50.4466 27.5301L50.528 27.472ZM50.528 25.816L50.4448 25.7605L50.4448 25.7605L50.528 25.816ZM53.404 16.864C53.404 17.0634 53.4539 17.2313 53.5713 17.3487C53.6887 17.4661 53.8566 17.516 54.056 17.516V17.316C53.8874 17.316 53.7793 17.2739 53.7127 17.2073C53.6461 17.1407 53.604 17.0326 53.604 16.864H53.404ZM54.056 17.516H64.76V17.316H54.056V17.516ZM64.76 17.516C65.1023 17.516 65.3297 17.6329 65.4672 17.853L65.6368 17.747C65.4543 17.455 65.1537 17.316 64.76 17.316V17.516ZM65.4714 17.8591C65.6332 18.0798 65.716 18.3464 65.716 18.664H65.916C65.916 18.3096 65.8228 18.0002 65.6326 17.7409L65.4714 17.8591ZM65.716 18.664C65.716 18.9986 65.6327 19.2822 65.4696 19.5193L65.6344 19.6327C65.8234 19.3578 65.916 19.0334 65.916 18.664H65.716ZM65.4688 19.5205C65.3324 19.7251 65.1049 19.836 64.76 19.836V20.036C65.1511 20.036 65.4516 19.9069 65.6352 19.6315L65.4688 19.5205ZM64.76 19.836H52.448V20.036H64.76V19.836ZM52.448 19.836C51.6864 19.836 51.1838 19.692 50.9088 19.4314L50.7712 19.5766C51.1042 19.892 51.6736 20.036 52.448 20.036V19.836ZM50.9107 19.4333C50.6521 19.1747 50.508 18.6897 50.508 17.944H50.308C50.308 18.7023 50.4519 19.2573 50.7693 19.5747L50.9107 19.4333ZM50.508 17.944V13.72H50.308V17.944H50.508ZM50.508 13.72C50.508 13.2969 50.6498 13.0037 50.9205 12.8185L50.8075 12.6535C50.4702 12.8843 50.308 13.2471 50.308 13.72H50.508ZM50.9185 12.8198C51.2208 12.6233 51.5695 12.524 51.968 12.524V12.324C51.5345 12.324 51.1472 12.4327 50.8095 12.6522L50.9185 12.8198ZM51.968 12.524C52.3497 12.524 52.6816 12.6229 52.9675 12.8185L53.0805 12.6535C52.7584 12.4331 52.3863 12.324 51.968 12.324V12.524ZM52.9695 12.8198C53.2558 13.006 53.404 13.299 53.404 13.72H53.604C53.604 13.245 53.4322 12.882 53.0785 12.6522L52.9695 12.8198ZM53.404 13.72V16.864H53.604V13.72H53.404ZM48.824 24.084C48.4794 24.084 48.2413 23.9731 48.0886 23.7649L47.9274 23.8831C48.1267 24.1549 48.4326 24.284 48.824 24.284V24.084ZM48.0928 23.771C47.9438 23.5326 47.868 23.2554 47.868 22.936H47.668C47.668 23.2886 47.7522 23.6034 47.9232 23.877L48.0928 23.771ZM47.868 22.936C47.868 22.6164 47.9439 22.3485 48.0912 22.1275L47.9248 22.0165C47.7521 22.2755 47.668 22.5836 47.668 22.936H47.868ZM48.0904 22.1287C48.2441 21.9051 48.482 21.788 48.824 21.788V21.588C48.43 21.588 48.1239 21.7269 47.9256 22.0153L48.0904 22.1287ZM48.824 21.788H56.408V21.588H48.824V21.788ZM56.508 21.688V18.688H56.308V21.688H56.508ZM56.408 18.788H59.432V18.588H56.408V18.788ZM59.332 18.688V21.688H59.532V18.688H59.332ZM59.432 21.788H67.016V21.588H59.432V21.788ZM67.016 21.788C67.3583 21.788 67.5857 21.905 67.7232 22.125L67.8928 22.019C67.7103 21.727 67.4097 21.588 67.016 21.588V21.788ZM67.7274 22.1311C67.8892 22.3518 67.972 22.6184 67.972 22.936H68.172C68.172 22.5816 68.0788 22.2722 67.8886 22.0129L67.7274 22.1311ZM67.972 22.936C67.972 23.2535 67.8892 23.5294 67.7256 23.7673L67.8904 23.8807C68.0788 23.6066 68.172 23.2905 68.172 22.936H67.972ZM67.7248 23.7685C67.5884 23.9731 67.3609 24.084 67.016 24.084V24.284C67.4071 24.284 67.7076 24.1549 67.8912 23.8795L67.7248 23.7685ZM67.016 24.084H48.824V24.284H67.016V24.084ZM63.416 25.556C64.1785 25.556 64.6709 25.7004 64.9293 25.9587L65.0707 25.8173C64.7531 25.4996 64.1895 25.356 63.416 25.356V25.556ZM64.9312 25.9606C65.2043 26.2193 65.356 26.7033 65.356 27.448H65.556C65.556 26.6887 65.4037 26.1327 65.0688 25.8154L64.9312 25.9606ZM65.356 27.448V29.2H65.556V27.448H65.356ZM65.356 29.2C65.356 29.9447 65.2043 30.4287 64.9312 30.6874L65.0688 30.8326C65.4037 30.5153 65.556 29.9593 65.556 29.2H65.356ZM64.9293 30.6893C64.6709 30.9476 64.1785 31.092 63.416 31.092V31.292C64.1895 31.292 64.7531 31.1484 65.0707 30.8307L64.9293 30.6893ZM63.416 31.092H53.672V31.292H63.416V31.092ZM53.672 31.092C53.5366 31.092 53.4167 31.1259 53.3313 31.2113C53.2459 31.2967 53.212 31.4166 53.212 31.552H53.412C53.412 31.4474 53.4381 31.3873 53.4727 31.3527C53.5073 31.3181 53.5674 31.292 53.672 31.292V31.092ZM53.212 31.552V31.984H53.412V31.552H53.212ZM53.212 31.984C53.212 32.1194 53.2459 32.2393 53.3313 32.3247C53.4167 32.4101 53.5366 32.444 53.672 32.444V32.244C53.5674 32.244 53.5073 32.2179 53.4727 32.1833C53.4381 32.1487 53.412 32.0886 53.412 31.984H53.212ZM53.672 32.444H64.952V32.244H53.672V32.444ZM64.952 32.444C65.261 32.444 65.4746 32.5522 65.6128 32.7595L65.7792 32.6485C65.5974 32.3758 65.315 32.244 64.952 32.244V32.444ZM65.6128 32.7595C65.7612 32.9821 65.836 33.2346 65.836 33.52H66.036C66.036 33.1974 65.9508 32.9059 65.7792 32.6485L65.6128 32.7595ZM65.836 33.52C65.836 33.8227 65.7606 34.0735 65.6146 34.2779L65.7774 34.3941C65.9514 34.1505 66.036 33.8573 66.036 33.52H65.836ZM65.6128 34.2805C65.4746 34.4878 65.261 34.596 64.952 34.596V34.796C65.315 34.796 65.5974 34.6642 65.7792 34.3915L65.6128 34.2805ZM64.952 34.596H52.376V34.796H64.952V34.596ZM52.376 34.596C51.6144 34.596 51.1118 34.452 50.8368 34.1914L50.6992 34.3366C51.0322 34.652 51.6016 34.796 52.376 34.796V34.596ZM50.8387 34.1933C50.5801 33.9347 50.436 33.4497 50.436 32.704H50.236C50.236 33.4623 50.3799 34.0173 50.6973 34.3347L50.8387 34.1933ZM50.436 32.704V30.928H50.236V32.704H50.436ZM50.436 30.928C50.436 30.1823 50.5801 29.6973 50.8387 29.4387L50.6973 29.2973C50.3799 29.6147 50.236 30.1697 50.236 30.928H50.436ZM50.8368 29.4406C51.1118 29.18 51.6144 29.036 52.376 29.036V28.836C51.6016 28.836 51.0322 28.98 50.6992 29.2954L50.8368 29.4406ZM52.376 29.036H62.12V28.836H52.376V29.036ZM62.12 29.036C62.2554 29.036 62.3753 29.0021 62.4607 28.9167C62.5461 28.8313 62.58 28.7114 62.58 28.576H62.38C62.38 28.6806 62.3539 28.7407 62.3193 28.7753C62.2847 28.8099 62.2246 28.836 62.12 28.836V29.036ZM62.58 28.576V28.168H62.38V28.576H62.58ZM62.58 28.168C62.58 28.0326 62.5461 27.9127 62.4607 27.8273C62.3753 27.7419 62.2554 27.708 62.12 27.708V27.908C62.2246 27.908 62.2847 27.9341 62.3193 27.9687C62.3539 28.0033 62.38 28.0634 62.38 28.168H62.58ZM62.12 27.708H51.272V27.908H62.12V27.708ZM51.272 27.708C50.9603 27.708 50.7464 27.6057 50.6094 27.4139L50.4466 27.5301C50.6296 27.7863 50.9117 27.908 51.272 27.908V27.708ZM50.6112 27.4165C50.4633 27.1947 50.388 26.9345 50.388 26.632H50.188C50.188 26.9695 50.2727 27.2693 50.4448 27.5275L50.6112 27.4165ZM50.388 26.632C50.388 26.3466 50.4628 26.0941 50.6112 25.8715L50.4448 25.7605C50.2732 26.0179 50.188 26.3094 50.188 26.632H50.388ZM50.6112 25.8715C50.7494 25.6642 50.963 25.556 51.272 25.556V25.356C50.909 25.356 50.6266 25.4878 50.4448 25.7605L50.6112 25.8715ZM51.272 25.556H63.416V25.356H51.272V25.556ZM76.5957 16.48V16.38H76.4957V16.48H76.5957ZM76.6677 19.648L76.5683 19.6595L76.5689 19.6632L76.6677 19.648ZM76.9557 20.8L76.8617 20.8342L76.8632 20.8379L76.9557 20.8ZM77.5077 21.832L77.4245 21.8875L77.4258 21.8893L77.5077 21.832ZM80.8918 25.24L80.9584 25.1655L80.9574 25.1645L80.8918 25.24ZM81.2517 26.2L81.1531 26.1829L81.1526 26.1871L81.2517 26.2ZM80.8197 27.136L80.8905 27.2067L80.8927 27.2044L80.8197 27.136ZM79.9317 27.616L79.9497 27.7145L79.9539 27.7135L79.9317 27.616ZM78.9718 27.328L79.0382 27.2532L79.0365 27.2518L78.9718 27.328ZM77.9158 26.368L77.845 26.4387L77.8466 26.4402L77.9158 26.368ZM76.6917 25.144L76.621 25.2147L76.621 25.2147L76.6917 25.144ZM75.4437 23.728L75.3587 23.7806L75.3599 23.7825L75.4437 23.728ZM75.0597 22.888L75.1575 22.867L75.1406 22.788H75.0597V22.888ZM75.0357 22.888V22.788H74.9555L74.9381 22.8663L75.0357 22.888ZM74.8917 23.32L74.8002 23.2793L74.7981 23.2849L74.8917 23.32ZM74.6277 23.8L74.5445 23.7445L74.5434 23.7463L74.6277 23.8ZM74.1477 24.424L74.2211 24.4921L74.2233 24.4895L74.1477 24.424ZM72.0837 26.488L72.0144 26.416L72.0144 26.416L72.0837 26.488ZM70.7397 27.712L70.8023 27.7901L70.805 27.7877L70.7397 27.712ZM69.7077 27.952L69.6788 28.0484L69.6899 28.0504L69.7077 27.952ZM69.2277 27.76L69.1718 27.8439L69.183 27.8494L69.2277 27.76ZM68.8437 27.424L68.919 27.3581L68.9187 27.3578L68.8437 27.424ZM68.4597 26.464L68.5597 26.4597L68.5597 26.4597L68.4597 26.464ZM68.8917 25.504L68.826 25.4287L68.8251 25.4295L68.8917 25.504ZM71.7237 22.816L71.653 22.7453L71.6518 22.7466L71.7237 22.816ZM72.5637 21.832L72.6457 21.8894L72.647 21.8875L72.5637 21.832ZM73.0917 20.8L72.9991 20.7621L72.9978 20.7658L73.0917 20.8ZM73.3797 19.648L73.2808 19.6328L73.2804 19.6365L73.3797 19.648ZM73.4757 16.48H73.5757V16.38H73.4757V16.48ZM69.1077 16.096L69.1902 16.0393L69.1902 16.0393L69.1077 16.096ZM69.1077 14.248L69.1902 14.3047L69.1902 14.3047L69.1077 14.248ZM80.7718 14.248L80.8542 14.1913L80.8542 14.1913L80.7718 14.248ZM80.7718 16.096L80.8542 16.1527L80.8542 16.1527L80.7718 16.096ZM88.8598 19.672L88.9422 19.6153L88.9422 19.6153L88.8598 19.672ZM88.8598 21.568L88.9422 21.6247L88.9437 21.6223L88.8598 21.568ZM85.7638 21.952V21.852H85.6638V21.952H85.7638ZM85.2837 32.872L85.2292 32.7881L85.2273 32.7895L85.2837 32.872ZM83.1477 32.872L83.0913 32.9546L83.0933 32.9558L83.1477 32.872ZM83.1477 12.52L83.0932 12.4361L83.0913 12.4375L83.1477 12.52ZM85.2837 12.52L85.2273 12.6026L85.2293 12.6038L85.2837 12.52ZM85.7638 19.288H85.6638V19.388H85.7638V19.288ZM76.4957 16.48V18.256H76.6957V16.48H76.4957ZM76.4957 18.256C76.4957 18.771 76.5199 19.2389 76.5684 19.6595L76.7671 19.6365C76.7196 19.2251 76.6957 18.765 76.6957 18.256H76.4957ZM76.5689 19.6632C76.6338 20.0849 76.7313 20.4753 76.8618 20.8342L77.0497 20.7658C76.9242 20.4207 76.8297 20.0431 76.7666 19.6328L76.5689 19.6632ZM76.8632 20.8379C77.0099 21.1964 77.1971 21.5463 77.4245 21.8875L77.591 21.7765C77.3704 21.4457 77.1896 21.1076 77.0483 20.7621L76.8632 20.8379ZM77.4258 21.8893C77.6538 22.215 77.9378 22.5474 78.277 22.8867L78.4185 22.7453C78.0857 22.4126 77.8097 22.089 77.5897 21.7747L77.4258 21.8893ZM78.277 22.8867C78.7414 23.3511 79.1899 23.7916 79.6224 24.208L79.7611 24.064C79.3296 23.6484 78.8821 23.2089 78.4185 22.7453L78.277 22.8867ZM79.6224 24.208C80.0553 24.625 80.4566 24.9941 80.8261 25.3155L80.9574 25.1645C80.5909 24.8459 80.1922 24.479 79.7611 24.064L79.6224 24.208ZM80.8251 25.3145C81.1062 25.566 81.2107 25.8525 81.1532 26.1829L81.3503 26.2171C81.4208 25.8115 81.2853 25.458 80.9584 25.1655L80.8251 25.3145ZM81.1526 26.1871C81.1071 26.5356 80.9716 26.8278 80.7468 27.0676L80.8927 27.2044C81.1479 26.9322 81.3004 26.6004 81.3509 26.2129L81.1526 26.1871ZM80.749 27.0653C80.5232 27.2911 80.2444 27.4424 79.9096 27.5185L79.9539 27.7135C80.3231 27.6296 80.6363 27.4609 80.8905 27.2067L80.749 27.0653ZM79.9139 27.5176C79.5947 27.5756 79.3052 27.4906 79.0382 27.2533L78.9053 27.4027C79.2143 27.6774 79.5648 27.7844 79.9496 27.7144L79.9139 27.5176ZM79.0365 27.2518C78.7184 26.9814 78.3679 26.6628 77.9849 26.2958L77.8466 26.4402C78.2316 26.8092 78.5851 27.1306 78.907 27.4042L79.0365 27.2518ZM77.9865 26.2973C77.6025 25.9133 77.1945 25.5053 76.7625 25.0733L76.621 25.2147C77.053 25.6467 77.461 26.0547 77.845 26.4387L77.9865 26.2973ZM76.7625 25.0733C76.1387 24.4495 75.7294 23.9839 75.5276 23.6735L75.3599 23.7825C75.5741 24.1121 75.9968 24.5905 76.621 25.2147L76.7625 25.0733ZM75.5288 23.6754C75.3231 23.3431 75.202 23.0745 75.1575 22.867L74.962 22.909C75.0135 23.1495 75.1484 23.4409 75.3587 23.7806L75.5288 23.6754ZM75.0597 22.788H75.0357V22.988H75.0597V22.788ZM74.9381 22.8663C74.9077 23.0034 74.8618 23.1411 74.8004 23.2794L74.9831 23.3606C75.0497 23.2109 75.0998 23.0606 75.1334 22.9097L74.9381 22.8663ZM74.7981 23.2849C74.754 23.4025 74.6708 23.5552 74.5445 23.7445L74.711 23.8555C74.8407 23.6608 74.9335 23.4935 74.9854 23.3551L74.7981 23.2849ZM74.5434 23.7463C74.435 23.9166 74.2784 24.1205 74.0722 24.3585L74.2233 24.4895C74.4331 24.2475 74.5965 24.0354 74.7121 23.8537L74.5434 23.7463ZM74.0745 24.356C73.8676 24.5788 73.6125 24.8418 73.309 25.1453L73.4505 25.2867C73.755 24.9822 74.0119 24.7172 74.221 24.492L74.0745 24.356ZM73.309 25.1453C72.8775 25.5769 72.4459 26.0004 72.0144 26.416L72.1531 26.56C72.5856 26.1436 73.018 25.7191 73.4505 25.2867L73.309 25.1453ZM72.0144 26.416C71.5837 26.8307 71.1371 27.2374 70.6745 27.6363L70.805 27.7877C71.2704 27.3866 71.7198 26.9773 72.1531 26.56L72.0144 26.416ZM70.6773 27.6339C70.5283 27.7531 70.3753 27.825 70.2179 27.8536L70.2536 28.0504C70.4482 28.015 70.6312 27.9269 70.8022 27.7901L70.6773 27.6339ZM70.2179 27.8536C70.0537 27.8835 69.8898 27.8835 69.7256 27.8536L69.6899 28.0504C69.8777 28.0845 70.0658 28.0845 70.2536 28.0504L70.2179 27.8536ZM69.7365 27.8562C69.5824 27.81 69.4277 27.7482 69.2725 27.6706L69.183 27.8494C69.3478 27.9318 69.5131 27.998 69.679 28.0478L69.7365 27.8562ZM69.2832 27.6768C69.1464 27.5856 69.0251 27.4794 68.919 27.3581L68.7685 27.4899C68.8864 27.6246 69.0211 27.7424 69.1723 27.8432L69.2832 27.6768ZM68.9187 27.3578C68.6941 27.1033 68.5747 26.8052 68.5597 26.4597L68.3598 26.4683C68.3768 26.8588 68.5134 27.2007 68.7688 27.4902L68.9187 27.3578ZM68.5597 26.4597C68.5451 26.1251 68.674 25.833 68.9584 25.5785L68.8251 25.4295C68.5015 25.719 68.3424 26.0669 68.3598 26.4683L68.5597 26.4597ZM68.9575 25.5793C69.9675 24.6976 70.9136 23.7996 71.7957 22.8854L71.6518 22.7466C70.7739 23.6564 69.832 24.5504 68.826 25.4287L68.9575 25.5793ZM71.7945 22.8867C72.1337 22.5474 72.4177 22.215 72.6457 21.8893L72.4818 21.7747C72.2618 22.089 71.9858 22.4126 71.653 22.7453L71.7945 22.8867ZM72.647 21.8875C72.875 21.5453 73.0548 21.1942 73.1857 20.8342L72.9978 20.7658C72.8727 21.1098 72.7005 21.4467 72.4805 21.7765L72.647 21.8875ZM73.1843 20.8379C73.3321 20.4766 73.4301 20.0836 73.4791 19.6595L73.2804 19.6365C73.2334 20.0444 73.1394 20.4194 72.9992 20.7621L73.1843 20.8379ZM73.4786 19.6632C73.5435 19.2412 73.5757 18.772 73.5757 18.256H73.3757C73.3757 18.764 73.344 19.2228 73.2809 19.6328L73.4786 19.6632ZM73.5757 18.256V16.48H73.3757V18.256H73.5757ZM73.4757 16.38H69.9237V16.58H73.4757V16.38ZM69.9237 16.38C69.5817 16.38 69.3439 16.2629 69.1902 16.0393L69.0253 16.1527C69.2236 16.4411 69.5298 16.58 69.9237 16.58V16.38ZM69.1902 16.0393C69.0271 15.8022 68.9437 15.5186 68.9437 15.184H68.7437C68.7437 15.5534 68.8364 15.8778 69.0253 16.1527L69.1902 16.0393ZM68.9437 15.184C68.9437 14.8324 69.0276 14.5411 69.1902 14.3047L69.0253 14.1913C68.8359 14.4669 68.7437 14.7996 68.7437 15.184H68.9437ZM69.1902 14.3047C69.3439 14.0811 69.5817 13.964 69.9237 13.964V13.764C69.5298 13.764 69.2236 13.9029 69.0253 14.1913L69.1902 14.3047ZM69.9237 13.964H79.9557V13.764H69.9237V13.964ZM79.9557 13.964C80.2978 13.964 80.5356 14.0811 80.6893 14.3047L80.8542 14.1913C80.6559 13.9029 80.3497 13.764 79.9557 13.764V13.964ZM80.6893 14.3047C80.8519 14.5411 80.9357 14.8324 80.9357 15.184H81.1357C81.1357 14.7996 81.0436 14.4669 80.8542 14.1913L80.6893 14.3047ZM80.9357 15.184C80.9357 15.5186 80.8524 15.8022 80.6893 16.0393L80.8542 16.1527C81.0431 15.8778 81.1357 15.5534 81.1357 15.184H80.9357ZM80.6893 16.0393C80.5356 16.2629 80.2978 16.38 79.9557 16.38V16.58C80.3497 16.58 80.6559 16.4411 80.8542 16.1527L80.6893 16.0393ZM79.9557 16.38H76.5957V16.58H79.9557V16.38ZM88.0198 19.388C88.3796 19.388 88.6245 19.5063 88.7773 19.7287L88.9422 19.6153C88.743 19.3257 88.4279 19.188 88.0198 19.188V19.388ZM88.7773 19.7287C88.9399 19.9651 89.0238 20.2564 89.0238 20.608H89.2238C89.2238 20.2236 89.1316 19.8909 88.9422 19.6153L88.7773 19.7287ZM89.0238 20.608C89.0238 20.9594 88.9399 21.26 88.7758 21.5137L88.9437 21.6223C89.1316 21.332 89.2238 20.9926 89.2238 20.608H89.0238ZM88.7773 21.5113C88.6245 21.7337 88.3796 21.852 88.0198 21.852V22.052C88.4279 22.052 88.743 21.9143 88.9422 21.6247L88.7773 21.5113ZM88.0198 21.852H85.7638V22.052H88.0198V21.852ZM85.6638 21.952V31.888H85.8638V21.952H85.6638ZM85.6638 31.888C85.6638 32.309 85.5156 32.602 85.2293 32.7882L85.3382 32.9558C85.6919 32.726 85.8638 32.363 85.8638 31.888H85.6638ZM85.2273 32.7895C84.9414 32.9851 84.6094 33.084 84.2278 33.084V33.284C84.6461 33.284 85.0181 33.1749 85.3402 32.9545L85.2273 32.7895ZM84.2278 33.084C83.8461 33.084 83.5052 32.9851 83.2022 32.7882L83.0933 32.9558C83.4303 33.1749 83.8094 33.284 84.2278 33.284V33.084ZM83.2042 32.7895C82.9335 32.6043 82.7918 32.3111 82.7918 31.888H82.5918C82.5918 32.3609 82.754 32.7237 83.0913 32.9545L83.2042 32.7895ZM82.7918 31.888V13.504H82.5918V31.888H82.7918ZM82.7918 13.504C82.7918 13.0809 82.9335 12.7877 83.2042 12.6025L83.0913 12.4375C82.754 12.6683 82.5918 13.0311 82.5918 13.504H82.7918ZM83.2022 12.6038C83.5052 12.4069 83.8461 12.308 84.2278 12.308V12.108C83.8094 12.108 83.4303 12.2171 83.0933 12.4362L83.2022 12.6038ZM84.2278 12.308C84.6094 12.308 84.9414 12.4069 85.2273 12.6025L85.3402 12.4375C85.0181 12.2171 84.6461 12.108 84.2278 12.108V12.308ZM85.2293 12.6038C85.5156 12.79 85.6638 13.083 85.6638 13.504H85.8638C85.8638 13.029 85.6919 12.666 85.3382 12.4362L85.2293 12.6038ZM85.6638 13.504V19.288H85.8638V13.504H85.6638ZM85.7638 19.388H88.0198V19.188H85.7638V19.388Z" fill="#191554" mask="url(#path-1-outside-1_357_45)"/>
<mask id="path-3-outside-2_357_45" maskUnits="userSpaceOnUse" x="2" y="3" width="47" height="27" fill="black">
<rect fill="white" x="2" y="3" width="47" height="27"/>
<path d="M4.06 3.812C4.54533 3.812 4.96533 3.93333 5.32 4.176C5.67467 4.41867 5.852 4.81067 5.852 5.352V12.016H14.224V5.352C14.224 4.81067 14.4013 4.41867 14.756 4.176C15.1107 3.93333 15.5307 3.812 16.016 3.812C16.5013 3.812 16.9213 3.93333 17.276 4.176C17.6307 4.41867 17.808 4.81067 17.808 5.352V22.516C17.808 23.0573 17.6307 23.4493 17.276 23.692C16.9213 23.9347 16.5013 24.056 16.016 24.056C15.5307 24.056 15.1107 23.9347 14.756 23.692C14.4013 23.4493 14.224 23.0573 14.224 22.516V14.984H5.852V22.516C5.852 23.0573 5.67467 23.4493 5.32 23.692C4.96533 23.9347 4.54533 24.056 4.06 24.056C3.57467 24.056 3.15467 23.9347 2.8 23.692C2.44533 23.4493 2.268 23.0573 2.268 22.516V5.352C2.268 4.81067 2.44533 4.41867 2.8 4.176C3.15467 3.93333 3.57467 3.812 4.06 3.812ZM26.9303 11.596C25.7543 11.596 24.8676 11.904 24.2703 12.52C23.6916 13.136 23.4023 13.92 23.4023 14.872V15.068H30.3463V14.788C30.3463 13.8733 30.085 13.1173 29.5623 12.52C29.0396 11.904 28.1623 11.596 26.9303 11.596ZM26.9863 8.684C27.9943 8.684 28.909 8.83333 29.7303 9.132C30.5516 9.43067 31.261 9.86 31.8583 10.42C32.4556 10.98 32.913 11.6707 33.2303 12.492C33.5663 13.3133 33.7343 14.256 33.7343 15.32V15.376C33.7343 16.2533 33.557 16.86 33.2023 17.196C32.8663 17.532 32.2503 17.7 31.3543 17.7H23.4023V17.756C23.4023 18.764 23.7103 19.5853 24.3263 20.22C24.961 20.8547 25.9036 21.172 27.1543 21.172C27.9383 21.172 28.6196 21.116 29.1983 21.004C29.7956 20.8733 30.4023 20.668 31.0183 20.388C31.3916 20.22 31.7556 20.2013 32.1103 20.332C32.465 20.444 32.7263 20.696 32.8943 21.088C33.0623 21.48 33.0996 21.8627 33.0063 22.236C32.913 22.5907 32.6796 22.8613 32.3063 23.048C31.597 23.4027 30.8223 23.6733 29.9823 23.86C29.1423 24.028 28.153 24.112 27.0143 24.112C24.7743 24.112 23.0383 23.5053 21.8063 22.292C20.5743 21.06 19.9583 19.2213 19.9583 16.776V16.048C19.9583 13.6213 20.5836 11.792 21.8343 10.56C23.085 9.30933 24.8023 8.684 26.9863 8.684ZM47.1752 8.964C47.6045 9.09467 47.9312 9.34667 48.1552 9.72C48.3979 10.0933 48.4259 10.5227 48.2392 11.008L41.2392 28.788C41.0525 29.2547 40.7539 29.5347 40.3432 29.628C39.9325 29.74 39.5032 29.7027 39.0552 29.516C38.6072 29.3293 38.2992 29.068 38.1312 28.732C37.9632 28.396 37.9632 28.0133 38.1312 27.584L39.6432 23.944L34.5472 11.12C34.3419 10.616 34.3605 10.1773 34.6032 9.804C34.8645 9.43067 35.2099 9.16933 35.6392 9.02C35.8632 8.94533 36.0872 8.89867 36.3112 8.88C36.5352 8.84267 36.7499 8.86133 36.9552 8.936C37.1792 8.992 37.3752 9.104 37.5432 9.272C37.7112 9.42133 37.8419 9.636 37.9352 9.916L41.4352 19.94H41.4632L44.9352 9.916C45.1219 9.37467 45.4392 9.048 45.8872 8.936C46.3352 8.824 46.7645 8.83333 47.1752 8.964Z"/>
</mask>
<path d="M4.06 3.812C4.54533 3.812 4.96533 3.93333 5.32 4.176C5.67467 4.41867 5.852 4.81067 5.852 5.352V12.016H14.224V5.352C14.224 4.81067 14.4013 4.41867 14.756 4.176C15.1107 3.93333 15.5307 3.812 16.016 3.812C16.5013 3.812 16.9213 3.93333 17.276 4.176C17.6307 4.41867 17.808 4.81067 17.808 5.352V22.516C17.808 23.0573 17.6307 23.4493 17.276 23.692C16.9213 23.9347 16.5013 24.056 16.016 24.056C15.5307 24.056 15.1107 23.9347 14.756 23.692C14.4013 23.4493 14.224 23.0573 14.224 22.516V14.984H5.852V22.516C5.852 23.0573 5.67467 23.4493 5.32 23.692C4.96533 23.9347 4.54533 24.056 4.06 24.056C3.57467 24.056 3.15467 23.9347 2.8 23.692C2.44533 23.4493 2.268 23.0573 2.268 22.516V5.352C2.268 4.81067 2.44533 4.41867 2.8 4.176C3.15467 3.93333 3.57467 3.812 4.06 3.812ZM26.9303 11.596C25.7543 11.596 24.8676 11.904 24.2703 12.52C23.6916 13.136 23.4023 13.92 23.4023 14.872V15.068H30.3463V14.788C30.3463 13.8733 30.085 13.1173 29.5623 12.52C29.0396 11.904 28.1623 11.596 26.9303 11.596ZM26.9863 8.684C27.9943 8.684 28.909 8.83333 29.7303 9.132C30.5516 9.43067 31.261 9.86 31.8583 10.42C32.4556 10.98 32.913 11.6707 33.2303 12.492C33.5663 13.3133 33.7343 14.256 33.7343 15.32V15.376C33.7343 16.2533 33.557 16.86 33.2023 17.196C32.8663 17.532 32.2503 17.7 31.3543 17.7H23.4023V17.756C23.4023 18.764 23.7103 19.5853 24.3263 20.22C24.961 20.8547 25.9036 21.172 27.1543 21.172C27.9383 21.172 28.6196 21.116 29.1983 21.004C29.7956 20.8733 30.4023 20.668 31.0183 20.388C31.3916 20.22 31.7556 20.2013 32.1103 20.332C32.465 20.444 32.7263 20.696 32.8943 21.088C33.0623 21.48 33.0996 21.8627 33.0063 22.236C32.913 22.5907 32.6796 22.8613 32.3063 23.048C31.597 23.4027 30.8223 23.6733 29.9823 23.86C29.1423 24.028 28.153 24.112 27.0143 24.112C24.7743 24.112 23.0383 23.5053 21.8063 22.292C20.5743 21.06 19.9583 19.2213 19.9583 16.776V16.048C19.9583 13.6213 20.5836 11.792 21.8343 10.56C23.085 9.30933 24.8023 8.684 26.9863 8.684ZM47.1752 8.964C47.6045 9.09467 47.9312 9.34667 48.1552 9.72C48.3979 10.0933 48.4259 10.5227 48.2392 11.008L41.2392 28.788C41.0525 29.2547 40.7539 29.5347 40.3432 29.628C39.9325 29.74 39.5032 29.7027 39.0552 29.516C38.6072 29.3293 38.2992 29.068 38.1312 28.732C37.9632 28.396 37.9632 28.0133 38.1312 27.584L39.6432 23.944L34.5472 11.12C34.3419 10.616 34.3605 10.1773 34.6032 9.804C34.8645 9.43067 35.2099 9.16933 35.6392 9.02C35.8632 8.94533 36.0872 8.89867 36.3112 8.88C36.5352 8.84267 36.7499 8.86133 36.9552 8.936C37.1792 8.992 37.3752 9.104 37.5432 9.272C37.7112 9.42133 37.8419 9.636 37.9352 9.916L41.4352 19.94H41.4632L44.9352 9.916C45.1219 9.37467 45.4392 9.048 45.8872 8.936C46.3352 8.824 46.7645 8.83333 47.1752 8.964Z" fill="#FF5100"/>
<path d="M5.32 4.176L5.26353 4.25853L5.26353 4.25853L5.32 4.176ZM5.852 12.016H5.752V12.116H5.852V12.016ZM14.224 12.016V12.116H14.324V12.016H14.224ZM14.756 4.176L14.8125 4.25853L14.8125 4.25853L14.756 4.176ZM17.276 4.176L17.2195 4.25853L17.2195 4.25853L17.276 4.176ZM17.276 23.692L17.2195 23.6095L17.2195 23.6095L17.276 23.692ZM14.756 23.692L14.8125 23.6095L14.8125 23.6095L14.756 23.692ZM14.224 14.984H14.324V14.884H14.224V14.984ZM5.852 14.984V14.884H5.752V14.984H5.852ZM5.32 23.692L5.37647 23.7745L5.37647 23.7745L5.32 23.692ZM2.8 23.692L2.85647 23.6095L2.85647 23.6095L2.8 23.692ZM2.8 4.176L2.85647 4.25853L2.85647 4.25853L2.8 4.176ZM4.06 3.912C4.52788 3.912 4.9276 4.02868 5.26353 4.25853L5.37647 4.09347C5.00307 3.83799 4.56278 3.712 4.06 3.712V3.912ZM5.26353 4.25853C5.58386 4.4777 5.752 4.83403 5.752 5.352H5.952C5.952 4.7873 5.76547 4.35963 5.37647 4.09347L5.26353 4.25853ZM5.752 5.352V12.016H5.952V5.352H5.752ZM5.852 12.116H14.224V11.916H5.852V12.116ZM14.324 12.016V5.352H14.124V12.016H14.324ZM14.324 5.352C14.324 4.83403 14.4921 4.4777 14.8125 4.25853L14.6995 4.09347C14.3105 4.35963 14.124 4.7873 14.124 5.352H14.324ZM14.8125 4.25853C15.1484 4.02868 15.5481 3.912 16.016 3.912V3.712C15.5132 3.712 15.0729 3.83799 14.6995 4.09347L14.8125 4.25853ZM16.016 3.912C16.4839 3.912 16.8836 4.02868 17.2195 4.25853L17.3325 4.09347C16.9591 3.83799 16.5188 3.712 16.016 3.712V3.912ZM17.2195 4.25853C17.5399 4.4777 17.708 4.83403 17.708 5.352H17.908C17.908 4.7873 17.7215 4.35963 17.3325 4.09347L17.2195 4.25853ZM17.708 5.352V22.516H17.908V5.352H17.708ZM17.708 22.516C17.708 23.034 17.5399 23.3903 17.2195 23.6095L17.3325 23.7745C17.7215 23.5084 17.908 23.0807 17.908 22.516H17.708ZM17.2195 23.6095C16.8836 23.8393 16.4839 23.956 16.016 23.956V24.156C16.5188 24.156 16.9591 24.03 17.3325 23.7745L17.2195 23.6095ZM16.016 23.956C15.5481 23.956 15.1484 23.8393 14.8125 23.6095L14.6995 23.7745C15.0729 24.03 15.5132 24.156 16.016 24.156V23.956ZM14.8125 23.6095C14.4921 23.3903 14.324 23.034 14.324 22.516H14.124C14.124 23.0807 14.3105 23.5084 14.6995 23.7745L14.8125 23.6095ZM14.324 22.516V14.984H14.124V22.516H14.324ZM14.224 14.884H5.852V15.084H14.224V14.884ZM5.752 14.984V22.516H5.952V14.984H5.752ZM5.752 22.516C5.752 23.034 5.58386 23.3903 5.26353 23.6095L5.37647 23.7745C5.76547 23.5084 5.952 23.0807 5.952 22.516H5.752ZM5.26353 23.6095C4.9276 23.8393 4.52788 23.956 4.06 23.956V24.156C4.56278 24.156 5.00307 24.03 5.37647 23.7745L5.26353 23.6095ZM4.06 23.956C3.59212 23.956 3.1924 23.8393 2.85647 23.6095L2.74353 23.7745C3.11693 24.03 3.55722 24.156 4.06 24.156V23.956ZM2.85647 23.6095C2.53614 23.3903 2.368 23.034 2.368 22.516H2.168C2.168 23.0807 2.35453 23.5084 2.74353 23.7745L2.85647 23.6095ZM2.368 22.516V5.352H2.168V22.516H2.368ZM2.368 5.352C2.368 4.83403 2.53614 4.4777 2.85647 4.25853L2.74353 4.09347C2.35453 4.35963 2.168 4.7873 2.168 5.352H2.368ZM2.85647 4.25853C3.1924 4.02868 3.59212 3.912 4.06 3.912V3.712C3.55722 3.712 3.11693 3.83799 2.74353 4.09347L2.85647 4.25853ZM24.2703 12.52L24.1985 12.4504L24.1974 12.4515L24.2703 12.52ZM23.4023 15.068H23.3023V15.168H23.4023V15.068ZM30.3463 15.068V15.168H30.4463V15.068H30.3463ZM29.5623 12.52L29.4861 12.5847L29.4871 12.5858L29.5623 12.52ZM29.7303 9.132L29.6961 9.22598L29.6961 9.22598L29.7303 9.132ZM31.8583 10.42L31.7899 10.493L31.7899 10.493L31.8583 10.42ZM33.2303 12.492L33.137 12.528L33.1378 12.5299L33.2303 12.492ZM33.2023 17.196L33.1335 17.1234L33.1316 17.1253L33.2023 17.196ZM23.4023 17.7V17.6H23.3023V17.7H23.4023ZM24.3263 20.22L24.2545 20.2897L24.2556 20.2907L24.3263 20.22ZM29.1983 21.004L29.2173 21.1022L29.2197 21.1017L29.1983 21.004ZM31.0183 20.388L30.9773 20.2968L30.9769 20.297L31.0183 20.388ZM32.1103 20.332L32.0757 20.4259L32.0802 20.4274L32.1103 20.332ZM33.0063 22.236L33.103 22.2615L33.1033 22.2603L33.0063 22.236ZM32.3063 23.048L32.2616 22.9586L32.2616 22.9586L32.3063 23.048ZM29.9823 23.86L30.0019 23.9581L30.004 23.9576L29.9823 23.86ZM21.8063 22.292L21.7356 22.3627L21.7361 22.3632L21.8063 22.292ZM21.8343 10.56L21.9045 10.6312L21.905 10.6307L21.8343 10.56ZM26.9303 11.496C25.7376 11.496 24.8208 11.8086 24.1985 12.4504L24.3421 12.5896C24.9145 11.9994 25.7711 11.696 26.9303 11.696V11.496ZM24.1974 12.4515C23.5991 13.0885 23.3023 13.898 23.3023 14.872H23.5023C23.5023 13.942 23.7842 13.1835 24.3432 12.5885L24.1974 12.4515ZM23.3023 14.872V15.068H23.5023V14.872H23.3023ZM23.4023 15.168H30.3463V14.968H23.4023V15.168ZM30.4463 15.068V14.788H30.2463V15.068H30.4463ZM30.4463 14.788C30.4463 13.853 30.1786 13.0725 29.6376 12.4541L29.4871 12.5858C29.9914 13.1622 30.2463 13.8936 30.2463 14.788H30.4463ZM29.6386 12.4553C29.0887 11.8073 28.1761 11.496 26.9303 11.496V11.696C28.1485 11.696 28.9906 12.0007 29.4861 12.5847L29.6386 12.4553ZM26.9863 8.784C27.9844 8.784 28.8873 8.93185 29.6961 9.22598L29.7645 9.03802C28.9307 8.73481 28.0042 8.584 26.9863 8.584V8.784ZM29.6961 9.22598C30.5056 9.52034 31.2031 9.94282 31.7899 10.493L31.9267 10.347C31.3189 9.77718 30.5977 9.34099 29.7645 9.03802L29.6961 9.22598ZM31.7899 10.493C32.3755 11.0419 32.8247 11.7196 33.137 12.528L33.3236 12.456C33.0013 11.6217 32.5358 10.9181 31.9267 10.347L31.7899 10.493ZM33.1378 12.5299C33.468 13.337 33.6343 14.2665 33.6343 15.32H33.8343C33.8343 14.2455 33.6647 13.2896 33.3229 12.4541L33.1378 12.5299ZM33.6343 15.32V15.376H33.8343V15.32H33.6343ZM33.6343 15.376C33.6343 16.246 33.4573 16.8167 33.1335 17.1234L33.2711 17.2686C33.6567 16.9033 33.8343 16.2607 33.8343 15.376H33.6343ZM33.1316 17.1253C32.8253 17.4316 32.2448 17.6 31.3543 17.6V17.8C32.2559 17.8 32.9074 17.6324 33.273 17.2667L33.1316 17.1253ZM31.3543 17.6H23.4023V17.8H31.3543V17.6ZM23.3023 17.7V17.756H23.5023V17.7H23.3023ZM23.3023 17.756C23.3023 18.7861 23.6179 19.6337 24.2546 20.2896L24.3981 20.1504C23.8027 19.537 23.5023 18.7419 23.5023 17.756H23.3023ZM24.2556 20.2907C24.9154 20.9505 25.8877 21.272 27.1543 21.272V21.072C25.9196 21.072 25.0066 20.7588 24.397 20.1493L24.2556 20.2907ZM27.1543 21.272C27.9427 21.272 28.6307 21.2157 29.2173 21.1022L29.1793 20.9058C28.6086 21.0163 27.9339 21.072 27.1543 21.072V21.272ZM29.2197 21.1017C29.8246 20.9694 30.4379 20.7616 31.0597 20.479L30.9769 20.297C30.3667 20.5744 29.7667 20.7773 29.1769 20.9063L29.2197 21.1017ZM31.0593 20.4792C31.411 20.321 31.7478 20.305 32.0757 20.4258L32.1449 20.2382C31.7635 20.0976 31.3723 20.119 30.9773 20.2968L31.0593 20.4792ZM32.0802 20.4274C32.4029 20.5293 32.644 20.7578 32.8024 21.1274L32.9862 21.0486C32.8086 20.6342 32.5271 20.3587 32.1404 20.2366L32.0802 20.4274ZM32.8024 21.1274C32.9628 21.5016 32.9968 21.8619 32.9093 22.2117L33.1033 22.2603C33.2025 21.8634 33.1619 21.4584 32.9862 21.0486L32.8024 21.1274ZM32.9096 22.2106C32.8246 22.5334 32.6131 22.7828 32.2616 22.9586L32.351 23.1374C32.7461 22.9399 33.0013 22.6479 33.103 22.2614L32.9096 22.2106ZM32.2616 22.9586C31.5602 23.3093 30.7933 23.5773 29.9606 23.7624L30.004 23.9576C30.8513 23.7693 31.6338 23.4961 32.351 23.1374L32.2616 22.9586ZM29.9627 23.7619C29.1309 23.9283 28.1484 24.012 27.0143 24.012V24.212C28.1576 24.212 29.1538 24.1277 30.0019 23.9581L29.9627 23.7619ZM27.0143 24.012C24.7925 24.012 23.0847 23.4107 21.8765 22.2208L21.7361 22.3632C22.9919 23.6 24.7561 24.212 27.0143 24.212V24.012ZM21.877 22.2213C20.6703 21.0145 20.0583 19.2057 20.0583 16.776H19.8583C19.8583 19.237 20.4784 21.1055 21.7356 22.3627L21.877 22.2213ZM20.0583 16.776V16.048H19.8583V16.776H20.0583ZM20.0583 16.048C20.0583 13.6377 20.6793 11.8382 21.9045 10.6312L21.7641 10.4888C20.488 11.7458 19.8583 13.605 19.8583 16.048H20.0583ZM21.905 10.6307C23.1327 9.403 24.8222 8.784 26.9863 8.784V8.584C24.7824 8.584 23.0372 9.21566 21.7636 10.4893L21.905 10.6307ZM47.1752 8.964L47.1449 9.0593L47.1461 9.05967L47.1752 8.964ZM48.1552 9.72L48.0694 9.77148L48.0713 9.7745L48.1552 9.72ZM48.2392 11.008L48.3322 11.0446L48.3325 11.0439L48.2392 11.008ZM41.2392 28.788L41.332 28.8251L41.3322 28.8246L41.2392 28.788ZM40.3432 29.628L40.321 29.5304L40.3169 29.5315L40.3432 29.628ZM38.1312 28.732L38.0417 28.7767L38.0417 28.7767L38.1312 28.732ZM38.1312 27.584L38.0388 27.5456L38.0381 27.5476L38.1312 27.584ZM39.6432 23.944L39.7355 23.9824L39.7511 23.9448L39.7361 23.9071L39.6432 23.944ZM34.5472 11.12L34.6401 11.0831L34.6398 11.0823L34.5472 11.12ZM34.6032 9.804L34.5212 9.74662L34.5193 9.7495L34.6032 9.804ZM35.6392 9.02L35.6076 8.92512L35.6063 8.92555L35.6392 9.02ZM36.3112 8.88L36.3195 8.97999L36.3276 8.97864L36.3112 8.88ZM36.9552 8.936L36.9208 9.03049L36.9309 9.03301L36.9552 8.936ZM37.5432 9.272L37.4724 9.34283L37.4768 9.34674L37.5432 9.272ZM37.9352 9.916L37.8403 9.94763L37.8408 9.94896L37.9352 9.916ZM41.4352 19.94L41.3408 19.973L41.3642 20.04H41.4352V19.94ZM41.4632 19.94V20.04H41.5344L41.5577 19.9727L41.4632 19.94ZM44.9352 9.916L45.0297 9.94873L45.0297 9.9486L44.9352 9.916ZM45.8872 8.936L45.8629 8.83898L45.8629 8.83898L45.8872 8.936ZM47.1461 9.05967C47.5525 9.18336 47.8586 9.42007 48.0694 9.77145L48.2409 9.66855C48.0038 9.27326 47.6565 9.00597 47.2043 8.86833L47.1461 9.05967ZM48.0713 9.7745C48.2935 10.1162 48.3232 10.511 48.1459 10.9721L48.3325 11.0439C48.5285 10.5344 48.5023 10.0705 48.239 9.6655L48.0713 9.7745ZM48.1461 10.9714L41.1461 28.7514L41.3322 28.8246L48.3322 11.0446L48.1461 10.9714ZM41.1463 28.7509C40.9692 29.1938 40.6931 29.4459 40.321 29.5305L40.3654 29.7255C40.8146 29.6234 41.1359 29.3156 41.332 28.8251L41.1463 28.7509ZM40.3169 29.5315C39.9306 29.6369 39.5241 29.6031 39.0937 29.4237L39.0167 29.6083C39.4822 29.8023 39.9344 29.8431 40.3695 29.7245L40.3169 29.5315ZM39.0937 29.4237C38.6612 29.2435 38.3751 28.9962 38.2206 28.6873L38.0417 28.7767C38.2233 29.1398 38.5532 29.4152 39.0167 29.6083L39.0937 29.4237ZM38.2206 28.6873C38.0681 28.3822 38.0641 28.0299 38.2243 27.6204L38.0381 27.5476C37.8623 27.9968 37.8583 28.4098 38.0417 28.7767L38.2206 28.6873ZM38.2235 27.6224L39.7355 23.9824L39.5508 23.9056L38.0388 27.5456L38.2235 27.6224ZM39.7361 23.9071L34.6401 11.0831L34.4543 11.1569L39.5503 23.9809L39.7361 23.9071ZM34.6398 11.0823C34.4437 10.601 34.4663 10.1981 34.687 9.8585L34.5193 9.7495C34.2548 10.1565 34.24 10.631 34.4546 11.1577L34.6398 11.0823ZM34.6851 9.86135C34.9344 9.50518 35.2626 9.25686 35.672 9.11445L35.6063 8.92555C35.1571 9.08181 34.7946 9.35615 34.5213 9.74665L34.6851 9.86135ZM35.6708 9.11487C35.8876 9.04259 36.1038 8.99763 36.3195 8.97965L36.3029 8.78034C36.0706 8.79971 35.8387 8.84807 35.6076 8.92513L35.6708 9.11487ZM36.3276 8.97864C36.5353 8.94402 36.7325 8.96143 36.921 9.02998L36.9894 8.84202C36.7672 8.76123 36.535 8.74131 36.2947 8.78136L36.3276 8.97864ZM36.9309 9.03301C37.1368 9.08449 37.3169 9.18714 37.4725 9.34271L37.6139 9.20129C37.4335 9.02086 37.2216 8.89951 36.9794 8.83898L36.9309 9.03301ZM37.4768 9.34674C37.6282 9.48135 37.7508 9.67918 37.8403 9.94762L38.0301 9.88438C37.9329 9.59282 37.7942 9.36132 37.6096 9.19726L37.4768 9.34674ZM37.8408 9.94896L41.3408 19.973L41.5296 19.907L38.0296 9.88303L37.8408 9.94896ZM41.4352 20.04H41.4632V19.84H41.4352V20.04ZM41.5577 19.9727L45.0297 9.94873L44.8407 9.88327L41.3687 19.9073L41.5577 19.9727ZM45.0297 9.9486C45.2084 9.43048 45.5043 9.13479 45.9114 9.03301L45.8629 8.83898C45.374 8.96121 45.0353 9.31885 44.8407 9.8834L45.0297 9.9486ZM45.9114 9.03301C46.3428 8.92518 46.7532 8.93466 47.1449 9.05929L47.2055 8.86871C46.7759 8.73201 46.3276 8.72282 45.8629 8.83898L45.9114 9.03301Z" fill="#FF5100" mask="url(#path-3-outside-2_357_45)"/>
</svg>
