<svg version="1.1" id="Layer_1" xmlns="http://www.w3.org/2000/svg" xmlns:xlink="http://www.w3.org/1999/xlink" x="0px" y="0px"
	 width="100%" viewBox="0 0 1024 751" enable-background="new 0 0 1024 751" xml:space="preserve">
<path fill="transparent" opacity="000000" stroke="none" 
	d="
M606.000000,752.000000 
	C404.000000,752.000000 202.500000,752.000000 1.000000,752.000000 
	C1.000000,501.666656 1.000000,251.333328 1.000000,1.000000 
	C342.333344,1.000000 683.666687,1.000000 1025.000000,1.000000 
	C1025.000000,251.333328 1025.000000,501.666656 1025.000000,752.000000 
	C885.500000,752.000000 746.000000,752.000000 606.000000,752.000000 
M962.983521,304.285675 
	C962.936035,303.504028 962.888550,302.722351 962.988770,301.021240 
	C962.988770,238.123840 962.988770,175.226425 962.988770,112.000000 
	C961.078186,112.000000 959.615540,112.000000 958.152893,112.000000 
	C807.598450,112.000000 657.044067,111.999535 506.489624,112.006821 
	C504.994934,112.006889 503.500214,112.109680 501.077148,112.022499 
	C485.457550,112.014977 469.837921,111.984695 454.218353,112.004845 
	C424.810486,112.042786 395.402679,112.109818 365.066254,112.011765 
	C265.066895,112.011765 165.067520,112.011765 65.005295,112.011765 
	C65.005295,205.318390 65.005051,297.913177 65.011871,390.507935 
	C65.011902,391.003387 65.111397,391.498840 65.023247,392.862640 
	C65.037056,395.202972 65.050865,397.543274 65.024033,400.834869 
	C65.037552,432.595184 65.051064,464.355469 65.008614,497.037079 
	C65.060593,516.026489 65.112564,535.015869 65.011757,554.934326 
	C65.011757,599.268738 65.011757,643.603210 65.011757,688.000000 
	C96.840775,688.000000 127.954224,688.019775 159.067642,687.993469 
	C182.025330,687.974060 204.982971,687.894470 228.875778,687.984802 
	C237.270386,687.937073 245.664978,687.889343 254.975342,687.988831 
	C415.470978,687.992554 575.966614,687.996582 736.462280,687.993408 
	C737.624939,687.993408 738.787537,687.893616 740.883789,687.984680 
	C749.272400,687.936584 757.660950,687.888489 766.970398,687.988708 
	C832.232849,687.988708 897.495361,687.988708 963.000000,687.988708 
	C963.000000,686.143799 963.000000,684.835693 963.000000,683.527527 
	C963.000000,558.700623 963.000488,433.873749 962.993408,309.046875 
	C962.993347,307.717560 962.894043,306.388245 962.983521,304.285675 
z"/>
<path fill="#FFD800" opacity="1.000000" stroke="none" 
	d="
M365.994843,112.164749 
	C395.402679,112.109818 424.810486,112.042786 454.218353,112.004845 
	C469.837921,111.984695 485.457550,112.014977 501.746124,112.412346 
	C505.072906,113.531929 507.786163,114.104141 510.379730,115.016487 
	C529.998901,121.917976 545.302795,141.817413 545.106628,163.147202 
	C544.773010,199.416672 545.107422,235.692276 545.098145,272.432068 
	C545.035217,293.818787 545.035217,314.738770 545.035217,335.999817 
	C547.492126,335.999817 549.301575,335.999786 551.111023,335.999786 
	C586.429382,335.999817 621.747681,335.994537 657.066040,336.000946 
	C747.693848,336.017365 838.321594,336.038971 928.970581,336.521362 
	C928.939758,357.992249 928.887756,379.000305 928.377930,400.005371 
	C923.093262,400.001251 918.265442,399.937866 913.439636,400.010437 
	C897.916626,400.243896 885.120300,406.227173 875.299744,418.328400 
	C854.469727,443.995819 866.039124,483.871277 899.702942,493.535645 
	C908.891602,496.173584 919.096924,495.269897 928.904602,496.456207 
	C928.982361,514.390625 928.657227,531.868591 929.084106,549.328125 
	C929.624207,571.418152 909.042236,592.995056 886.489685,592.050171 
	C879.015930,591.737061 871.517639,592.010437 863.993774,591.588806 
	C863.970398,581.392456 865.115906,571.467468 863.799500,561.880615 
	C858.372559,522.358521 837.560486,492.942749 801.886841,475.391968 
	C769.614929,459.514771 736.401306,459.763611 703.893555,475.634827 
	C673.358826,490.542786 653.887207,514.855103 644.765564,547.533081 
	C640.680969,562.166077 640.262268,577.022339 641.504456,592.009277 
	C544.703430,592.007080 448.367279,592.011414 351.993408,591.588501 
	C351.969574,581.391846 353.115845,571.466919 351.799438,561.880188 
	C346.372467,522.358154 325.560242,492.942474 289.886566,475.391785 
	C257.614655,459.514679 224.401077,459.763672 191.893463,475.634796 
	C161.358734,490.542755 141.887329,514.855164 132.765671,547.533020 
	C128.681000,562.166077 128.262070,577.022339 129.504089,592.009216 
	C121.711998,592.001709 114.383980,592.094543 107.059189,591.980225 
	C92.547440,591.753662 80.949272,585.423889 73.131767,573.507629 
	C69.351173,567.744751 67.751602,560.551147 65.164536,554.005310 
	C65.112564,535.015869 65.060593,516.026489 65.498428,496.528137 
	C75.798859,495.976349 85.623802,496.255859 95.417000,495.820770 
	C113.486160,495.018066 127.396225,481.654388 128.661026,463.731964 
	C129.291763,454.794189 129.030869,445.784912 128.978165,436.809143 
	C128.848648,414.753448 114.146820,400.163666 92.001160,400.004028 
	C83.022514,399.939270 74.043510,399.922302 65.064682,399.883606 
	C65.050865,397.543274 65.037056,395.202972 65.423027,392.203766 
	C66.392159,381.992889 70.048935,373.472931 75.147079,365.625275 
	C86.977219,347.414978 103.768867,337.175171 125.563347,336.094086 
	C137.350998,335.509369 149.186478,335.889008 161.464539,335.906799 
	C237.212646,335.986633 312.496582,336.012909 387.780548,335.985504 
	C405.594940,335.979004 416.972290,324.519135 416.987640,306.621338 
	C417.025269,262.816742 417.034149,219.012054 416.984253,175.207489 
	C416.962097,155.762405 405.003815,144.028549 385.438538,143.996643 
	C359.959106,143.955093 334.479736,143.888702 309.133301,143.534531 
	C317.788086,133.700485 327.597504,125.607330 339.289490,120.544380 
	C347.804199,116.857277 357.066071,114.895630 365.994843,112.164749 
z"/>
<path fill="transparent" opacity="1.000000" stroke="none" 
	d="
M545.161133,271.965302 
	C545.107422,235.692276 544.773010,199.416672 545.106628,163.147202 
	C545.302795,141.817413 529.998901,121.917976 510.379730,115.016487 
	C507.786163,114.104141 505.072906,113.531929 502.210327,112.483353 
	C503.500214,112.109680 504.994934,112.006889 506.489624,112.006821 
	C657.044067,111.999535 807.598450,112.000000 958.152893,112.000000 
	C959.615540,112.000000 961.078186,112.000000 962.988770,112.000000 
	C962.988770,175.226425 962.988770,238.123840 962.644165,301.214417 
	C961.615479,284.648438 945.199829,271.776306 929.528503,271.815033 
	C801.406677,272.131836 673.283752,271.976868 545.161133,271.965302 
z"/>
<path fill="transparent" opacity="1.000000" stroke="none" 
	d="
M365.530548,112.088257 
	C357.066071,114.895630 347.804199,116.857277 339.289490,120.544380 
	C327.597504,125.607330 317.788086,133.700485 308.812744,143.681580 
	C306.808899,146.018005 305.209045,147.870651 303.715973,149.805710 
	C288.027435,170.138260 272.355865,190.483902 256.679810,210.826080 
	C241.003647,231.168411 225.274353,251.470078 209.666351,271.864563 
	C193.383438,293.140961 177.217484,314.506866 161.000381,335.833618 
	C149.186478,335.889008 137.350998,335.509369 125.563347,336.094086 
	C103.768867,337.175171 86.977219,347.414978 75.147079,365.625275 
	C70.048935,373.472931 66.392159,381.992889 65.493622,391.769592 
	C65.111397,391.498840 65.011902,391.003387 65.011871,390.507935 
	C65.005051,297.913177 65.005295,205.318390 65.005295,112.011765 
	C165.067520,112.011765 265.066895,112.011765 365.530548,112.088257 
z"/>
<path fill="transparent" opacity="1.000000" stroke="none" 
	d="
M352.031128,592.015747 
	C448.367279,592.011414 544.703430,592.007080 641.516357,592.429932 
	C642.035034,593.854614 641.929871,594.884155 642.140503,595.844543 
	C645.946228,613.195251 652.381592,629.416809 663.331116,643.565918 
	C675.638428,659.469666 690.631653,672.164917 709.649109,679.183777 
	C719.475830,682.810669 729.832764,685.000977 739.950195,687.840332 
	C738.787537,687.893616 737.624939,687.993408 736.462280,687.993408 
	C575.966614,687.996582 415.470978,687.992554 254.799988,687.639038 
	C272.192139,685.716553 288.075226,679.364075 302.669983,669.784119 
	C318.920746,659.117188 331.679871,645.105957 340.565582,627.777893 
	C346.337616,616.521912 350.472748,604.661743 352.031128,592.015747 
z"/>
<path fill="#321B41" opacity="1.000000" stroke="none" 
	d="
M351.993408,591.588501 
	C350.472748,604.661743 346.337616,616.521912 340.565582,627.777893 
	C331.679871,645.105957 318.920746,659.117188 302.669983,669.784119 
	C288.075226,679.364075 272.192139,685.716553 254.342102,687.565491 
	C245.664978,687.889343 237.270386,687.937073 228.130249,687.638245 
	C209.884598,685.485046 193.933487,679.261841 179.304398,669.751953 
	C164.033066,659.824524 151.874542,646.763611 143.011475,630.845520 
	C136.279617,618.755066 131.444611,605.923096 129.969604,592.015869 
	C128.262070,577.022339 128.681000,562.166077 132.765671,547.533020 
	C141.887329,514.855164 161.358734,490.542755 191.893463,475.634796 
	C224.401077,459.763672 257.614655,459.514679 289.886566,475.391785 
	C325.560242,492.942474 346.372467,522.358154 351.799438,561.880188 
	C353.115845,571.466919 351.969574,581.391846 351.993408,591.588501 
M272.582642,612.119263 
	C288.311646,598.202515 293.485291,575.067444 284.941925,556.851746 
	C275.155975,535.986694 255.165314,525.186401 233.058929,528.821045 
	C213.759750,531.994202 198.425323,546.419373 194.225189,565.352417 
	C189.971252,584.527954 197.709030,604.874695 213.820114,615.599060 
	C230.546127,626.732849 252.906021,627.960266 272.582642,612.119263 
z"/>
<path fill="#321B41" opacity="1.000000" stroke="none" 
	d="
M740.416992,687.912476 
	C729.832764,685.000977 719.475830,682.810669 709.649109,679.183777 
	C690.631653,672.164917 675.638428,659.469666 663.331116,643.565918 
	C652.381592,629.416809 645.946228,613.195251 642.140503,595.844543 
	C641.929871,594.884155 642.035034,593.854614 641.981262,592.436523 
	C640.262268,577.022339 640.680969,562.166077 644.765564,547.533081 
	C653.887207,514.855103 673.358826,490.542786 703.893555,475.634827 
	C736.401306,459.763611 769.614929,459.514771 801.886841,475.391968 
	C837.560486,492.942749 858.372559,522.358521 863.799500,561.880615 
	C865.115906,571.467468 863.970398,581.392456 863.980957,592.003906 
	C861.686157,606.861694 857.152588,620.047729 849.907715,632.344971 
	C834.342468,658.764709 811.826050,676.066345 782.351746,684.295959 
	C777.004639,685.788940 771.487976,686.674438 766.049561,687.840454 
	C757.660950,687.888489 749.272400,687.936584 740.416992,687.912476 
M799.025513,562.648926 
	C798.742126,561.873596 798.443726,561.103271 798.177490,560.322144 
	C790.124146,536.697510 764.393494,522.875244 740.898193,529.555115 
	C715.238953,536.850220 700.130005,562.059082 706.272827,587.326782 
	C712.477295,612.848389 739.220215,629.090088 764.489563,622.683472 
	C790.730774,616.030396 806.133362,589.752014 799.025513,562.648926 
z"/>
<path fill="#321B41" opacity="1.000000" stroke="none" 
	d="
M545.098145,272.432068 
	C673.283752,271.976868 801.406677,272.131836 929.528503,271.815033 
	C945.199829,271.776306 961.615479,284.648438 962.570312,301.674133 
	C962.888550,302.722351 962.936035,303.504028 962.639771,304.946014 
	C962.009766,322.055145 946.153137,337.831268 928.949402,336.058533 
	C838.321594,336.038971 747.693848,336.017365 657.066040,336.000946 
	C621.747681,335.994537 586.429382,335.999817 551.111023,335.999786 
	C549.301575,335.999786 547.492126,335.999817 545.035217,335.999817 
	C545.035217,314.738770 545.035217,293.818787 545.098145,272.432068 
z"/>
<path fill="transparent" opacity="1.000000" stroke="none" 
	d="
M928.970581,336.521362 
	C946.153137,337.831268 962.009766,322.055145 962.568542,305.332642 
	C962.894043,306.388245 962.993347,307.717560 962.993408,309.046875 
	C963.000488,433.873749 963.000000,558.700623 963.000000,683.527527 
	C963.000000,684.835693 963.000000,686.143799 963.000000,687.988708 
	C897.495361,687.988708 832.232849,687.988708 766.510010,687.914551 
	C771.487976,686.674438 777.004639,685.788940 782.351746,684.295959 
	C811.826050,676.066345 834.342468,658.764709 849.907715,632.344971 
	C857.152588,620.047729 861.686157,606.861694 864.017761,592.430786 
	C871.517639,592.010437 879.015930,591.737061 886.489685,592.050171 
	C909.042236,592.995056 929.624207,571.418152 929.084106,549.328125 
	C928.657227,531.868591 928.982361,514.390625 928.977234,495.991882 
	C928.932495,463.378052 928.884094,431.693207 928.835693,400.008392 
	C928.887756,379.000305 928.939758,357.992249 928.970581,336.521362 
z"/>
<path fill="transparent" opacity="1.000000" stroke="none" 
	d="
M129.504089,592.009216 
	C131.444611,605.923096 136.279617,618.755066 143.011475,630.845520 
	C151.874542,646.763611 164.033066,659.824524 179.304398,669.751953 
	C193.933487,679.261841 209.884598,685.485046 227.662674,687.566650 
	C204.982971,687.894470 182.025330,687.974060 159.067642,687.993469 
	C127.954224,688.019775 96.840775,688.000000 65.011757,688.000000 
	C65.011757,643.603210 65.011757,599.268738 65.088150,554.469849 
	C67.751602,560.551147 69.351173,567.744751 73.131767,573.507629 
	C80.949272,585.423889 92.547440,591.753662 107.059189,591.980225 
	C114.383980,592.094543 121.711998,592.001709 129.504089,592.009216 
z"/>
<path fill="#E6E6E6" opacity="1.000000" stroke="none" 
	d="
M65.044357,400.359253 
	C74.043510,399.922302 83.022514,399.939270 92.001160,400.004028 
	C114.146820,400.163666 128.848648,414.753448 128.978165,436.809143 
	C129.030869,445.784912 129.291763,454.794189 128.661026,463.731964 
	C127.396225,481.654388 113.486160,495.018066 95.417000,495.820770 
	C85.623802,496.255859 75.798859,495.976349 65.526413,496.067505 
	C65.051064,464.355469 65.037552,432.595184 65.044357,400.359253 
z"/>
<path fill="#50E2FF" opacity="1.000000" stroke="none" 
	d="
M161.464539,335.906799 
	C177.217484,314.506866 193.383438,293.140961 209.666351,271.864563 
	C225.274353,251.470078 241.003647,231.168411 256.679810,210.826080 
	C272.355865,190.483902 288.027435,170.138260 303.715973,149.805710 
	C305.209045,147.870651 306.808899,146.018005 308.679749,143.980072 
	C334.479736,143.888702 359.959106,143.955093 385.438538,143.996643 
	C405.003815,144.028549 416.962097,155.762405 416.984253,175.207489 
	C417.034149,219.012054 417.025269,262.816742 416.987640,306.621338 
	C416.972290,324.519135 405.594940,335.979004 387.780548,335.985504 
	C312.496582,336.012909 237.212646,335.986633 161.464539,335.906799 
z"/>
<path fill="#F9C13C" opacity="1.000000" stroke="none" 
	d="
M928.377930,400.005371 
	C928.884094,431.693207 928.932495,463.378052 928.908325,495.527222 
	C919.096924,495.269897 908.891602,496.173584 899.702942,493.535645 
	C866.039124,483.871277 854.469727,443.995819 875.299744,418.328400 
	C885.120300,406.227173 897.916626,400.243896 913.439636,400.010437 
	C918.265442,399.937866 923.093262,400.001251 928.377930,400.005371 
z"/>
<path fill="#E6E6E6" opacity="1.000000" stroke="none" 
	d="
M272.330322,612.374390 
	C252.906021,627.960266 230.546127,626.732849 213.820114,615.599060 
	C197.709030,604.874695 189.971252,584.527954 194.225189,565.352417 
	C198.425323,546.419373 213.759750,531.994202 233.058929,528.821045 
	C255.165314,525.186401 275.155975,535.986694 284.941925,556.851746 
	C293.485291,575.067444 288.311646,598.202515 272.330322,612.374390 
z"/>
<path fill="#E6E6E6" opacity="1.000000" stroke="none" 
	d="
M799.116211,563.050598 
	C806.133362,589.752014 790.730774,616.030396 764.489563,622.683472 
	C739.220215,629.090088 712.477295,612.848389 706.272827,587.326782 
	C700.130005,562.059082 715.238953,536.850220 740.898193,529.555115 
	C764.393494,522.875244 790.124146,536.697510 798.177490,560.322144 
	C798.443726,561.103271 798.742126,561.873596 799.116211,563.050598 
z"/>
</svg>