<?xml version="1.0" encoding="iso-8859-1"?>
<!-- Uploaded to: SVG Repo, www.svgrepo.com, Generator: SVG Repo Mixer Tools -->
<svg height="800px" width="800px" version="1.1" id="Layer_1" xmlns="http://www.w3.org/2000/svg" xmlns:xlink="http://www.w3.org/1999/xlink" 
	 viewBox="0 0 512 512" xml:space="preserve">
<polygon style="fill:#E86F22;" points="271.565,210.634 238.354,320.883 205.143,320.883 183.003,265.758 205.143,210.634 "/>
<path style="fill:#FCDB5A;" d="M109.838,238.963c-45.17,0-81.92,36.749-81.92,81.92h163.839
	C191.757,275.712,155.008,238.963,109.838,238.963z"/>
<polygon style="fill:#FFF3DC;" points="370.657,135.002 332.075,135.002 319.311,179.737 364.799,232.775 398.009,210.634 "/>
<polygon style="fill:#FFFFFF;" points="270.353,135.002 249.945,232.775 364.799,210.634 337.446,135.002 "/>
<g>
	<path style="fill:#FE9837;" d="M367.655,126.699h-95.57l-11.07,16.605h106.64c4.585,0,8.303-3.717,8.303-8.303
		C375.957,130.417,372.24,126.699,367.655,126.699z"/>
	<path style="fill:#FE9837;" d="M470.664,225.579l-72.654-14.945l72.477,110.249h33.211v-54.776
		C503.697,247.553,488.83,229.321,470.664,225.579z"/>
</g>
<path style="fill:#FFAD61;" d="M470.487,266.107v54.776H238.354V160.43c0-18.554,15.177-33.731,33.731-33.731v83.935h125.924
	l49.827,14.945C460.291,229.321,470.487,247.553,470.487,266.107z"/>
<path style="fill:#4D3D36;" d="M294.227,252.152h-22.141c-4.585,0-8.303-3.717-8.303-8.303c0-4.585,3.717-8.303,8.303-8.303h22.141
	c4.585,0,8.303,3.717,8.303,8.303C302.529,248.435,298.812,252.152,294.227,252.152z"/>
<path style="fill:#FD830C;" d="M0,210.634v110.249h24.177c5.524-42.344,41.835-75.145,85.662-75.145s80.138,32.801,85.651,75.145
	h9.653V210.634L0,210.634L0,210.634z"/>
<path style="fill:#555843;" d="M109.839,278.949v106.352c29.369,0,53.171-23.812,53.171-53.182
	C163.01,302.75,139.209,278.949,109.839,278.949z"/>
<path style="fill:#5D734F;" d="M109.839,278.949c17.137,0,31.03,23.801,31.03,53.171c0,29.369-13.893,53.182-31.03,53.182
	c-29.369,0-53.182-23.812-53.182-53.182C56.658,302.75,80.47,278.949,109.839,278.949z"/>
<path style="fill:#BCC987;" d="M109.838,352.088c-11.009,0-19.965-8.956-19.965-19.965s8.956-19.966,19.965-19.966
	s19.965,8.957,19.965,19.966S120.848,352.088,109.838,352.088z"/>
<path style="fill:#FCDB5A;" d="M503.697,295.301h-24.866c-4.585,0-8.303-3.717-8.303-8.303s3.717-8.303,8.303-8.303h24.866
	c4.585,0,8.303,3.717,8.303,8.303S508.283,295.301,503.697,295.301z"/>
<path style="fill:#FFAD61;" d="M196.225,340.425c-4.585,0-8.303-3.717-8.303-8.303c0-43.057-35.029-78.085-78.084-78.085
	s-78.084,35.029-78.084,78.085c0,4.585-3.717,8.303-8.303,8.303s-8.303-3.717-8.303-8.303c0-52.213,42.478-94.691,94.69-94.691
	s94.69,42.478,94.69,94.691C204.528,336.708,200.81,340.425,196.225,340.425z"/>
<path style="fill:#555843;" d="M393.86,278.949v106.352c29.369,0,53.171-23.812,53.171-53.182
	C447.031,302.75,423.231,278.949,393.86,278.949z"/>
<path style="fill:#5D734F;" d="M393.86,278.949c17.137,0,31.03,23.801,31.03,53.171c0,29.369-13.893,53.182-31.03,53.182
	c-29.369,0-53.182-23.812-53.182-53.182C340.679,302.75,364.492,278.949,393.86,278.949z"/>
<path style="fill:#BCC987;" d="M393.859,352.088c-11.009,0-19.965-8.956-19.965-19.965s8.956-19.966,19.965-19.966
	s19.965,8.957,19.965,19.966S404.869,352.088,393.859,352.088z"/>
</svg>